<svg width="400" height="300" viewBox="0 0 400 300" xmlns="http://www.w3.org/2000/svg">
  <defs>
    <linearGradient id="bg2" x1="0%" y1="0%" x2="100%" y2="100%">
      <stop offset="0%" style="stop-color:#1f2937;stop-opacity:1" />
      <stop offset="100%" style="stop-color:#111827;stop-opacity:1" />
    </linearGradient>
  </defs>
  <rect width="400" height="300" fill="url(#bg2)"/>
  
  <!-- App móvil mockup -->
  <rect x="150" y="50" width="100" height="180" rx="20" fill="#374151" stroke="#6b7280" stroke-width="2"/>
  <rect x="160" y="60" width="80" height="160" rx="10" fill="#1f2937"/>
  
  <!-- Pantalla de inventario -->
  <rect x="170" y="80" width="60" height="120" fill="#dc2626"/>
  <text x="200" y="100" text-anchor="middle" fill="white" font-family="Arial" font-size="8">INVENTARIO</text>
  <rect x="175" y="110" width="50" height="8" fill="white" opacity="0.7"/>
  <rect x="175" y="125" width="40" height="8" fill="white" opacity="0.5"/>
  <rect x="175" y="140" width="45" height="8" fill="white" opacity="0.5"/>
  <rect x="175" y="155" width="35" height="8" fill="white" opacity="0.5"/>
  
  <!-- QR Code mockup -->
  <rect x="180" y="170" width="20" height="20" fill="white"/>
  <rect x="185" y="175" width="2" height="2" fill="black"/>
  <rect x="190" y="175" width="2" height="2" fill="black"/>
  <rect x="185" y="180" width="2" height="2" fill="black"/>
  <rect x="190" y="180" width="2" height="2" fill="black"/>
  
  <!-- Botón home -->
  <circle cx="200" cy="220" r="8" fill="#374151"/>
</svg>
